<svg width="72" height="58" xmlns="http://www.w3.org/2000/svg">
<g clip-path="url(#clip0_3_6)">
<path d="M66.146 17.7057C65.2854 17.2679 64.2318 17.6409 63.7251 18.4679L54.1701 33.8007C53.768 34.4494 52.835 34.4656 52.4087 33.8332L42.7572 19.6031C42.4757 19.1896 42.1058 18.8004 41.6715 18.5003C39.7492 17.1625 37.1111 17.649 35.7841 19.5869L35.6071 19.8544L27.0495 32.3494C26.1487 33.6629 24.1621 33.4764 23.5267 32.0088L13.7948 9.79201C13.7143 9.59741 13.6098 9.40281 13.5133 9.21632C11.5588 5.64866 7.09504 4.37566 3.57225 6.40274C0.0977202 8.40549 -0.980028 12.9624 0.950267 16.4895L18.8859 49.3201L19.1353 49.7741C19.6259 50.6579 20.3658 51.4282 21.3229 51.939C23.961 53.3661 27.2586 52.2391 28.7304 49.6201L38.1969 32.8359C38.961 31.4899 40.835 31.352 41.776 32.5764L50.5026 43.9361L50.7278 44.2361C51.154 44.7875 51.7492 45.2173 52.4811 45.4362C54.154 45.9389 55.9395 45.0145 56.6554 43.401L66.9905 20.1139C67.3846 19.2382 67.0387 18.1679 66.1379 17.7138L66.146 17.7057Z"/>
<path d="M68.6153 42.4929C70.4854 42.4929 72.0013 40.9646 72.0013 39.0793C72.0013 37.194 70.4854 35.6657 68.6153 35.6657C66.7452 35.6657 65.2292 37.194 65.2292 39.0793C65.2292 40.9646 66.7452 42.4929 68.6153 42.4929Z"/>
</g>
<defs>
<clipPath id="clip0_3_6">
<rect width="72" height="58"/>
</clipPath>
</defs>
</svg>
